<svg width="495" height="860" viewBox="0 0 495 860" fill="none" xmlns="http://www.w3.org/2000/svg">
<g clip-path="url(#clip0_247_1907)">
<mask id="mask0_247_1907" style="mask-type:alpha" maskUnits="userSpaceOnUse" x="-581" y="-135" width="1382" height="1024">
<rect width="1381.39" height="1024" transform="matrix(-1 0 0 1 801 -135)" fill="url(#paint0_radial_247_1907)"/>
</mask>
<g mask="url(#mask0_247_1907)">
<g opacity="0.7">
<mask id="mask1_247_1907" style="mask-type:alpha" maskUnits="userSpaceOnUse" x="-819" y="74" width="1894" height="853">
<rect width="1892.35" height="853" transform="matrix(-1 0 0 1 1074.31 74)" fill="url(#paint1_radial_247_1907)"/>
</mask>
<g mask="url(#mask1_247_1907)">
<rect width="1892.35" height="853" transform="matrix(-1 0 0 1 1074.31 74)" fill="url(#paint2_radial_247_1907)"/>
</g>
</g>
<rect x="563.376" y="829.366" width="150.812" height="150.812" transform="rotate(180 563.376 829.366)" stroke="#5582EE" stroke-width="1.26733"/>
<rect x="412.564" y="829.366" width="150.812" height="150.812" transform="rotate(180 412.564 829.366)" stroke="#5582EE" stroke-width="1.26733"/>
<rect x="261.752" y="829.366" width="150.812" height="150.812" transform="rotate(180 261.752 829.366)" stroke="#5582EE" stroke-width="1.26733"/>
<rect x="110.941" y="829.366" width="150.812" height="150.812" transform="rotate(180 110.941 829.366)" stroke="#5582EE" stroke-width="1.26733"/>
<rect x="563.376" y="678.554" width="150.812" height="150.812" transform="rotate(180 563.376 678.554)" fill="#5582EE" fill-opacity="0.2" stroke="#5582EE" stroke-width="1.26733"/>
<rect x="412.564" y="678.554" width="150.812" height="150.812" transform="rotate(180 412.564 678.554)" stroke="#5582EE" stroke-width="1.26733"/>
<rect x="261.752" y="678.554" width="150.812" height="150.812" transform="rotate(180 261.752 678.554)" stroke="#5582EE" stroke-width="1.26733"/>
<rect x="110.941" y="678.554" width="150.812" height="150.812" transform="rotate(180 110.941 678.554)" stroke="#5582EE" stroke-width="1.26733"/>
<rect x="563.376" y="527.743" width="150.812" height="150.812" transform="rotate(180 563.376 527.743)" stroke="#5582EE" stroke-width="1.26733"/>
<rect x="412.564" y="527.743" width="150.812" height="150.812" transform="rotate(180 412.564 527.743)" stroke="#5582EE" stroke-width="1.26733"/>
<rect x="261.752" y="527.743" width="150.812" height="150.812" transform="rotate(180 261.752 527.743)" fill="#5582EE" fill-opacity="0.2" stroke="#5582EE" stroke-width="1.26733"/>
<rect x="110.941" y="527.743" width="150.812" height="150.812" transform="rotate(180 110.941 527.743)" stroke="#5582EE" stroke-width="1.26733"/>
<rect x="563.376" y="376.931" width="150.812" height="150.812" transform="rotate(180 563.376 376.931)" stroke="#5582EE" stroke-width="1.26733"/>
<rect x="412.564" y="376.931" width="150.812" height="150.812" transform="rotate(180 412.564 376.931)" fill="#5582EE" fill-opacity="0.2" stroke="#5582EE" stroke-width="1.26733"/>
<rect x="261.752" y="376.931" width="150.812" height="150.812" transform="rotate(180 261.752 376.931)" stroke="#5582EE" stroke-width="1.26733"/>
<rect x="110.941" y="376.931" width="150.812" height="150.812" transform="rotate(180 110.941 376.931)" fill="#5582EE" fill-opacity="0.2" stroke="#5582EE" stroke-width="1.26733"/>
<rect x="563.376" y="226.119" width="150.812" height="150.812" transform="rotate(180 563.376 226.119)" stroke="#5582EE" stroke-width="1.26733"/>
<rect x="412.564" y="226.119" width="150.812" height="150.812" transform="rotate(180 412.564 226.119)" fill="#5582EE" fill-opacity="0.2" stroke="#5582EE" stroke-width="1.26733"/>
<rect x="261.752" y="226.119" width="150.812" height="150.812" transform="rotate(180 261.752 226.119)" stroke="#5582EE" stroke-width="1.26733"/>
<rect x="110.941" y="226.119" width="150.812" height="150.812" transform="rotate(180 110.941 226.119)" stroke="#5582EE" stroke-width="1.26733"/>
<rect x="563.376" y="75.3069" width="150.812" height="150.812" transform="rotate(180 563.376 75.3069)" stroke="#5582EE" stroke-width="1.26733"/>
<rect x="412.564" y="75.3069" width="150.812" height="150.812" transform="rotate(180 412.564 75.3069)" stroke="#5582EE" stroke-width="1.26733"/>
<rect x="261.752" y="75.3069" width="150.812" height="150.812" transform="rotate(180 261.752 75.3069)" stroke="#5582EE" stroke-width="1.26733"/>
<rect x="110.941" y="75.3069" width="150.812" height="150.812" transform="rotate(180 110.941 75.3069)" stroke="#5582EE" stroke-width="1.26733"/>
</g>
</g>
<defs>
<radialGradient id="paint0_radial_247_1907" cx="0" cy="0" r="1" gradientUnits="userSpaceOnUse" gradientTransform="translate(483.5 500.5) rotate(65.788) scale(505.208 681.531)">
<stop stop-color="#5582EE" stop-opacity="0.2"/>
<stop offset="0.475962" stop-color="#DBFF75" stop-opacity="0"/>
</radialGradient>
<radialGradient id="paint1_radial_247_1907" cx="0" cy="0" r="1" gradientUnits="userSpaceOnUse" gradientTransform="translate(946.175 426.5) rotate(24.264) scale(1037.86 777.647)">
<stop stop-color="white"/>
<stop offset="1" stop-opacity="0"/>
</radialGradient>
<radialGradient id="paint2_radial_247_1907" cx="0" cy="0" r="1" gradientUnits="userSpaceOnUse" gradientTransform="translate(-125.139 289.411) rotate(10.8786) scale(1954.95 5298.64)">
<stop stop-color="#5582EE"/>
<stop offset="0.46875" stop-color="#A3BEFF"/>
<stop offset="1" stop-color="#2563EB"/>
</radialGradient>
<clipPath id="clip0_247_1907">
<rect width="495" height="860" fill="white" transform="matrix(-1 0 0 1 495 0)"/>
</clipPath>
</defs>
</svg>
