<svg width="175" height="175" viewBox="0 0 175 175" fill="none" xmlns="http://www.w3.org/2000/svg">
<mask id="path-1-inside-1_247_2210" fill="white">
<path d="M87.5 175C110.706 175 132.962 165.781 149.372 149.372C165.781 132.962 175 110.706 175 87.5L87.5 87.5L87.5 175Z"/>
</mask>
<path d="M87.5 175C110.706 175 132.962 165.781 149.372 149.372C165.781 132.962 175 110.706 175 87.5L87.5 87.5L87.5 175Z" stroke="white" stroke-width="2" mask="url(#path-1-inside-1_247_2210)"/>
<path d="M103.843 63.327C98.88 63.327 93.9657 64.3045 89.3806 66.2037C84.7955 68.1029 80.6294 70.8867 77.1201 74.396C73.6108 77.9053 70.8271 82.0714 68.9278 86.6565C67.0286 91.2416 66.0511 96.1559 66.0511 101.119L103.843 101.119L103.843 63.327Z" fill="#F9B139"/>
</svg>
