<svg width="257" height="116" viewBox="0 0 257 116" fill="none" xmlns="http://www.w3.org/2000/svg">
<path opacity="0.3" d="M140.057 119.892L116.714 79.9084H163.399L140.057 119.892Z" fill="#A9A464"/>
<path d="M186.743 119.892L163.4 79.9084H210.085L186.743 119.892Z" fill="#2563EB"/>
<path opacity="0.3" d="M210.086 79.9084L233.428 119.892H186.743L210.086 79.9084Z" fill="#F16530"/>
<path d="M163.4 79.9084L186.742 119.892H140.057L163.4 79.9084Z" fill="#F16530"/>
<path d="M116.714 79.9084L140.056 119.892H93.3708L116.714 79.9084Z" fill="#2563EB"/>
<path opacity="0.2" d="M70.0287 79.9084L93.3715 119.892H46.686L70.0287 79.9084Z" fill="#2563EB"/>
<path d="M93.3717 39.9834L116.714 79.9088H70.0289L93.3717 39.9834Z" fill="#F9B139"/>
<path d="M140.057 39.9834L163.399 79.9088H116.714L140.057 39.9834Z" fill="#F9B139"/>
<path opacity="0.3" d="M163.4 79.9088L140.057 39.9834H186.742L163.4 79.9088Z" fill="#A9A464"/>
<path d="M116.714 79.9088L93.3708 39.9834H140.056L116.714 79.9088Z" fill="#A9A464"/>
<path opacity="0.2" d="M220.085 79.9088L196.743 39.9834H243.428L220.085 79.9088Z" fill="#A9A464"/>
<path d="M233.427 39.9834L256.77 79.9088H210.085L233.427 39.9834Z" fill="#2563EB"/>
<path opacity="0.2" d="M163.4 3.8147e-06L186.742 39.9832H140.057L163.4 3.8147e-06Z" fill="#2563EB"/>
<path d="M116.714 3.8147e-06L140.056 39.9832H93.3708L116.714 3.8147e-06Z" fill="#2563EB"/>
<path d="M186.743 39.9834L210.085 79.9088H163.4L186.743 39.9834Z" fill="#A9A464"/>
</svg>
