<svg width="257" height="200" viewBox="0 0 257 200" fill="none" xmlns="http://www.w3.org/2000/svg">
<path d="M46.6855 79.9089L23.3428 39.9257L0 79.9089H46.6855Z" fill="#2563EB"/>
<path d="M140.057 79.909L116.714 119.892H163.399L140.057 79.909Z" fill="#A9A464"/>
<path opacity="0.2" d="M186.743 79.909L163.4 119.892H210.085L186.743 79.909Z" fill="#2563EB"/>
<path d="M210.085 39.9254H256.77L233.427 0L210.085 39.9254Z" fill="#F9B139"/>
<path opacity="0.2" d="M233.427 79.9089L256.77 39.9257H210.085L233.427 79.9089Z" fill="#A9A464"/>
<path d="M210.086 119.892L233.428 79.909H186.743L210.086 119.892Z" fill="#F16530"/>
<path d="M210.086 39.9257L186.743 79.9089H233.428L210.086 39.9257Z" fill="#F9B139"/>
<path d="M163.4 119.892L186.742 79.909H140.057L163.4 119.892Z" fill="#F16530"/>
<path opacity="0.2" d="M116.714 119.892L140.056 79.909H93.3708L116.714 119.892Z" fill="#2563EB"/>
<path opacity="0.3" d="M70.0287 119.892L93.3715 79.909H46.686L70.0287 119.892Z" fill="#2563EB"/>
<path d="M233.428 0H186.743L210.086 39.9254L233.428 0Z" fill="#16C8D1"/>
<path d="M93.3717 159.817L116.714 119.892H70.0289L93.3717 159.817Z" fill="#F9B139"/>
<path d="M163.4 39.9257L140.057 79.9089H186.742L163.4 39.9257Z" fill="#2563EB"/>
<path d="M186.743 79.9089L210.085 39.9257H163.4L186.743 79.9089Z" fill="#2563EB"/>
<path opacity="0.2" d="M163.4 39.9254H210.085L186.743 0L163.4 39.9254Z" fill="#F16530"/>
<path d="M116.714 39.9254H163.399L140.057 0L116.714 39.9254Z" fill="#2563EB"/>
<path d="M140.056 0H93.3708L116.714 39.9254L140.056 0Z" fill="#F9B139"/>
<path d="M140.057 159.817L163.399 119.892H116.714L140.057 159.817Z" fill="#F9B139"/>
<path d="M163.4 119.892L140.057 159.817H186.742L163.4 119.892Z" fill="#A9A464"/>
<path opacity="0.3" d="M116.714 119.892L93.3708 159.817H140.056L116.714 119.892Z" fill="#A9A464"/>
<path d="M210.086 119.892L186.743 159.817H233.428L210.086 119.892Z" fill="#A9A464"/>
<path d="M233.427 159.817L256.77 119.892H210.085L233.427 159.817Z" fill="#2563EB"/>
<path opacity="0.3" d="M163.4 199.801L186.742 159.817H140.057L163.4 199.801Z" fill="#2563EB"/>
<path d="M116.714 199.801L140.056 159.817H93.3708L116.714 199.801Z" fill="#2563EB"/>
<path opacity="0.2" d="M186.743 159.817L210.085 119.892H163.4L186.743 159.817Z" fill="#A9A464"/>
</svg>
