<svg width="16" height="16" viewBox="0 0 16 16" fill="none" xmlns="http://www.w3.org/2000/svg">
<path d="M7.91897 1.79814C9.88882 1.79814 10.1221 1.80552 10.9003 1.841C11.3681 1.84673 11.8316 1.93264 12.2704 2.09501C12.5887 2.21774 12.8777 2.40575 13.1189 2.64693C13.36 2.88811 13.548 3.17713 13.6708 3.49537C13.8331 3.93421 13.9191 4.39764 13.9248 4.86551C13.9599 5.64369 13.9676 5.87696 13.9676 7.84681C13.9676 9.81666 13.9603 10.0499 13.9248 10.8281C13.9191 11.296 13.8331 11.7594 13.6708 12.1983C13.548 12.5165 13.36 12.8055 13.1189 13.0467C12.8777 13.2879 12.5887 13.4759 12.2704 13.5986C11.8316 13.761 11.3681 13.8469 10.9003 13.8526C10.1224 13.8877 9.88917 13.8955 7.91897 13.8955C5.94877 13.8955 5.71549 13.8881 4.93767 13.8526C4.4698 13.8469 4.00636 13.761 3.56753 13.5986C3.24929 13.4759 2.96027 13.2879 2.71909 13.0467C2.47791 12.8055 2.2899 12.5165 2.16717 12.1983C2.0048 11.7594 1.91889 11.296 1.91316 10.8281C1.87803 10.0499 1.8703 9.81666 1.8703 7.84681C1.8703 5.87696 1.87768 5.64369 1.91316 4.86551C1.91889 4.39764 2.0048 3.93421 2.16717 3.49537C2.2899 3.17713 2.47791 2.88811 2.71909 2.64693C2.96027 2.40575 3.24929 2.21774 3.56753 2.09501C4.00636 1.93264 4.4698 1.84673 4.93767 1.841C5.71585 1.80587 5.94912 1.79814 7.91897 1.79814ZM7.91897 0.46875C5.91645 0.46875 5.6642 0.477182 4.87725 0.513016C4.26491 0.525196 3.65908 0.641136 3.08552 0.855904C2.59349 1.04128 2.14784 1.33179 1.77966 1.70715C1.40396 2.07547 1.11321 2.52137 0.927711 3.01371C0.712943 3.58727 0.597003 4.1931 0.584823 4.80544C0.549691 5.59169 0.54126 5.84394 0.54126 7.84646C0.54126 9.84898 0.549691 10.1012 0.585526 10.8882C0.597706 11.5005 0.713645 12.1063 0.928414 12.6799C1.1137 13.1722 1.40421 13.6181 1.77966 13.9865C2.14804 14.3619 2.59394 14.6524 3.08622 14.8377C3.65978 15.0525 4.26561 15.1684 4.87795 15.1806C5.6649 15.2157 5.9161 15.2249 7.91967 15.2249C9.92325 15.2249 10.1744 15.2164 10.9614 15.1806C11.5737 15.1684 12.1796 15.0525 12.7531 14.8377C13.2431 14.6478 13.688 14.3577 14.0594 13.9861C14.4309 13.6144 14.7206 13.1693 14.9102 12.6792C15.125 12.1056 15.2409 11.4998 15.2531 10.8875C15.2882 10.1012 15.2967 9.84898 15.2967 7.84646C15.2967 5.84394 15.2882 5.59169 15.2524 4.80474C15.2402 4.1924 15.1243 3.58657 14.9095 3.01301C14.7242 2.52073 14.4337 2.07483 14.0583 1.70645C13.6899 1.331 13.244 1.04049 12.7517 0.855201C12.1782 0.640433 11.5723 0.524493 10.96 0.512314C10.1737 0.477182 9.92149 0.46875 7.91897 0.46875Z" fill="#0F172A"/>
<path d="M7.91876 4.05664C7.16944 4.05664 6.43695 4.27884 5.81391 4.69514C5.19087 5.11144 4.70527 5.70314 4.41852 6.39542C4.13177 7.08771 4.05674 7.84947 4.20293 8.5844C4.34911 9.31932 4.70994 9.99439 5.23979 10.5242C5.76964 11.0541 6.44471 11.4149 7.17963 11.5611C7.91456 11.7073 8.67632 11.6323 9.3686 11.3455C10.0609 11.0588 10.6526 10.5732 11.0689 9.95012C11.4852 9.32708 11.7074 8.59459 11.7074 7.84527C11.7074 6.84046 11.3082 5.87681 10.5977 5.16631C9.88722 4.4558 8.92357 4.05664 7.91876 4.05664ZM7.91876 10.3045C7.43237 10.3045 6.9569 10.1603 6.55248 9.89005C6.14806 9.61983 5.83285 9.23575 5.64672 8.78638C5.46059 8.33701 5.41189 7.84254 5.50678 7.3655C5.60167 6.88845 5.83589 6.45026 6.17982 6.10633C6.52375 5.7624 6.96194 5.52818 7.43899 5.43329C7.91603 5.3384 8.4105 5.3871 8.85987 5.57323C9.30923 5.75937 9.69332 6.07457 9.96354 6.47899C10.2338 6.88341 10.378 7.35888 10.378 7.84527C10.378 8.4975 10.1189 9.12302 9.6577 9.58421C9.19651 10.0454 8.57099 10.3045 7.91876 10.3045Z" fill="#0F172A"/>
<path d="M11.8571 4.79311C12.3461 4.79311 12.7425 4.39674 12.7425 3.90779C12.7425 3.41883 12.3461 3.02246 11.8571 3.02246C11.3682 3.02246 10.9718 3.41883 10.9718 3.90779C10.9718 4.39674 11.3682 4.79311 11.8571 4.79311Z" fill="#0F172A"/>
</svg>
