<svg width="13" height="11" viewBox="0 0 13 11" fill="none" xmlns="http://www.w3.org/2000/svg">
<path d="M12.4195 1.56081C11.9631 1.76363 11.4814 1.89039 10.9744 1.96645C11.4814 1.66222 11.8871 1.18051 12.0645 0.597393C11.5828 0.876275 11.0504 1.0791 10.4673 1.20586C10.0109 0.724157 9.35177 0.419922 8.64189 0.419922C7.27283 0.419922 6.1573 1.53545 6.1573 2.90451C6.1573 3.10734 6.18265 3.28481 6.23336 3.46228C4.17977 3.36086 2.329 2.3721 1.08671 0.850922C0.883885 1.23122 0.75712 1.63686 0.75712 2.09322C0.75712 2.95522 1.18812 3.71581 1.87265 4.17216C1.467 4.14681 1.08671 4.04539 0.731767 3.86792V3.89328C0.731767 5.11022 1.59377 6.12434 2.73465 6.35251C2.53183 6.40322 2.30365 6.42857 2.07547 6.42857C1.92336 6.42857 1.74589 6.40322 1.59377 6.37787C1.92336 7.36663 2.83606 8.10187 3.92624 8.10187C3.06424 8.76105 1.99941 9.16669 0.833179 9.16669C0.630355 9.16669 0.427532 9.16669 0.250061 9.14134C1.36559 9.85122 2.65859 10.2569 4.07836 10.2569C8.66724 10.2569 11.1772 6.45393 11.1772 3.15804C11.1772 3.05663 11.1772 2.92986 11.1772 2.82845C11.6589 2.49886 12.0899 2.06786 12.4195 1.56081Z" fill="#0F172A"/>
</svg>
