<svg width="56" height="55" viewBox="0 0 56 55" fill="none" xmlns="http://www.w3.org/2000/svg">
<rect x="0.571411" width="54.8571" height="54.8571" rx="27.4286" fill="#DBEAFE"/>
<path d="M32.5724 37.7141V35.4284C32.5724 34.2159 32.0908 33.0532 31.2334 32.1959C30.3761 31.3386 29.2134 30.8569 28.001 30.8569H21.1438C19.9314 30.8569 18.7686 31.3386 17.9113 32.1959C17.054 33.0532 16.5724 34.2159 16.5724 35.4284V37.7141" stroke="#2563EB" stroke-width="2.28571" stroke-linecap="round" stroke-linejoin="round"/>
<path d="M24.5716 26.2854C27.0963 26.2854 29.143 24.2387 29.143 21.714C29.143 19.1893 27.0963 17.1426 24.5716 17.1426C22.0468 17.1426 20.0001 19.1893 20.0001 21.714C20.0001 24.2387 22.0468 26.2854 24.5716 26.2854Z" stroke="#2563EB" stroke-width="2.28571" stroke-linecap="round" stroke-linejoin="round"/>
<path d="M39.4297 37.7139V35.4282C39.4289 34.4153 39.0918 33.4314 38.4712 32.6309C37.8507 31.8304 36.9818 31.2586 36.0011 31.0054" stroke="#2563EB" stroke-width="2.28571" stroke-linecap="round" stroke-linejoin="round"/>
<path d="M32.5722 17.2913C33.5555 17.543 34.4271 18.1149 35.0495 18.9168C35.6719 19.7186 36.0097 20.7048 36.0097 21.7198C36.0097 22.7349 35.6719 23.7211 35.0495 24.5229C34.4271 25.3247 33.5555 25.8966 32.5722 26.1484" stroke="#2563EB" stroke-width="2.28571" stroke-linecap="round" stroke-linejoin="round"/>
</svg>
