<svg width="15" height="15" viewBox="0 0 15 15" fill="none" xmlns="http://www.w3.org/2000/svg">
<path fill-rule="evenodd" clip-rule="evenodd" d="M7.4715 0.46875C3.56064 0.46875 0.414307 3.61508 0.414307 7.52594C0.414307 10.6429 2.44325 13.2893 5.23672 14.2303C5.58958 14.2891 5.7072 14.0833 5.7072 13.8774C5.7072 13.701 5.7072 13.2599 5.7072 12.6718C3.73707 13.1129 3.3254 11.7309 3.3254 11.7309C3.00194 10.9075 2.53146 10.7017 2.53146 10.7017C1.88456 10.2606 2.59027 10.2606 2.59027 10.2606C3.29599 10.3194 3.67826 10.9957 3.67826 10.9957C4.29576 12.0837 5.32494 11.7603 5.73661 11.5838C5.79542 11.1134 5.97185 10.8193 6.17768 10.6429C4.61922 10.4664 2.97254 9.84894 2.97254 7.14368C2.97254 6.37915 3.23718 5.73224 3.70766 5.26176C3.64885 5.08533 3.38421 4.37961 3.76647 3.37984C3.76647 3.37984 4.35457 3.20341 5.7072 4.11497C6.2659 3.96794 6.8834 3.87973 7.4715 3.87973C8.0596 3.87973 8.6771 3.96794 9.2358 4.11497C10.5884 3.20341 11.1765 3.37984 11.1765 3.37984C11.5588 4.35021 11.3236 5.05593 11.2353 5.26176C11.6764 5.76165 11.9705 6.37915 11.9705 7.14368C11.9705 9.84894 10.3238 10.437 8.73591 10.6135C9.00056 10.8193 9.20639 11.2604 9.20639 11.9073C9.20639 12.8482 9.20639 13.6128 9.20639 13.848C9.20639 14.0244 9.32401 14.2597 9.70628 14.2009C12.4998 13.2893 14.5287 10.6429 14.5287 7.52594C14.5287 3.61508 11.3824 0.46875 7.4715 0.46875Z" fill="#0F172A"/>
</svg>
