<svg width="55" height="55" viewBox="0 0 55 55" fill="none" xmlns="http://www.w3.org/2000/svg">
<rect x="0.0714111" width="54.8571" height="54.8571" rx="27.4286" fill="#DBEAFE"/>
<path d="M18.3577 29.7141C18.1414 29.7148 17.9294 29.6542 17.7462 29.5392C17.563 29.4242 17.4162 29.2596 17.3229 29.0646C17.2295 28.8695 17.1935 28.6519 17.2188 28.4371C17.2442 28.2224 17.33 28.0192 17.4663 27.8512L28.7805 16.1941C28.8654 16.0961 28.9811 16.0299 29.1085 16.0064C29.236 15.9828 29.3677 16.0032 29.482 16.0644C29.5962 16.1255 29.6864 16.2237 29.7375 16.3428C29.7886 16.4619 29.7978 16.5948 29.7634 16.7198L27.5691 23.5998C27.5044 23.773 27.4827 23.9593 27.5058 24.1427C27.5289 24.3261 27.5962 24.5012 27.7018 24.6529C27.8074 24.8046 27.9483 24.9284 28.1123 25.0137C28.2763 25.099 28.4585 25.1433 28.6434 25.1427H36.6434C36.8597 25.1419 37.0717 25.2026 37.2549 25.3175C37.4381 25.4325 37.5849 25.5971 37.6782 25.7922C37.7716 25.9873 37.8076 26.2048 37.7823 26.4196C37.7569 26.6344 37.6711 26.8376 37.5348 27.0055L26.2205 38.6627C26.1357 38.7606 26.02 38.8268 25.8926 38.8504C25.7651 38.874 25.6334 38.8535 25.5191 38.7924C25.4049 38.7312 25.3147 38.6331 25.2636 38.514C25.2125 38.3949 25.2033 38.2619 25.2377 38.1369L27.432 31.2569C27.4967 31.0838 27.5184 30.8975 27.4953 30.7141C27.4722 30.5307 27.4049 30.3556 27.2993 30.2039C27.1937 30.0522 27.0528 29.9284 26.8888 29.843C26.7248 29.7577 26.5426 29.7135 26.3577 29.7141H18.3577Z" stroke="#2563EB" stroke-width="2.28571" stroke-linecap="round" stroke-linejoin="round"/>
</svg>
