<svg width="1440" height="27" viewBox="0 0 1440 27" fill="none" xmlns="http://www.w3.org/2000/svg">
<path d="M49.9772 17C21.2318 14.9111 -23 6 -23 6V-10H1577V26.5C1577 26.5 1410.29 2.2409 1303.09 6C1253.16 7.75082 1225.54 14.7498 1175.63 17C1071.02 21.7162 1012.4 3.93899 907.709 6C836.93 7.39335 797.544 15.5226 726.766 17C618.953 19.2505 558.442 -1.28583 450.852 6C410.891 8.70605 388.908 15.5077 348.884 17C287.678 19.2821 253.68 5.57921 192.433 6C136.636 6.38334 105.628 21.0442 49.9772 17Z" fill="#F3F9FD"/>
</svg>
