<svg width="1600" height="38" viewBox="0 0 1600 38" fill="none" xmlns="http://www.w3.org/2000/svg">
<path d="M548.142 0.57251C615.164 3.23628 669.286 14.2515 749.766 12.5715C820.543 11.0941 859.93 2.96489 930.709 1.57153C1035.4 -0.489481 1094.02 17.2878 1198.63 12.5715C1248.54 10.3213 1276.16 3.32235 1326.09 1.57153C1433.26 -2.1865 1599.91 22.0586 1600 22.0715V37.0725C1600 37.0725 1433.29 12.8135 1326.09 16.5725C1276.16 18.3233 1248.54 25.3223 1198.63 27.5725C1094.02 32.2888 1035.4 14.5115 930.709 16.5725C859.93 17.9659 820.543 26.0951 749.766 27.5725C641.953 29.823 581.442 9.28668 473.852 16.5725C433.891 19.2786 411.908 26.0802 371.884 27.5725C310.678 29.8546 276.68 16.1517 215.433 16.5725C159.636 16.9559 128.628 31.6166 72.9775 27.5725C44.2493 25.4848 0.052749 16.5831 0 16.5725V1.57153C0 1.57153 44.2322 10.4826 72.9775 12.5715C128.628 16.6156 159.636 1.95488 215.433 1.57153C276.68 1.15074 310.678 14.8536 371.884 12.5715C411.908 11.0792 433.891 4.2776 473.852 1.57153C480.121 1.14696 486.232 0.818139 492.2 0.57251H548.142Z" fill="#5582EE"/>
</svg>
