<svg width="1440" height="37" viewBox="0 0 1440 37" fill="none" xmlns="http://www.w3.org/2000/svg">
<path d="M49.9772 27C21.2318 24.9111 -23 16 -23 16V0H1577V36.5C1577 36.5 1410.29 12.2409 1303.09 16C1253.16 17.7508 1225.54 24.7498 1175.63 27C1071.02 31.7162 1012.4 13.939 907.709 16C836.93 17.3933 797.544 25.5226 726.766 27C618.953 29.2505 558.442 8.71417 450.852 16C410.891 18.7061 388.908 25.5077 348.884 27C287.678 29.2821 253.68 15.5792 192.433 16C136.636 16.3833 105.628 31.0442 49.9772 27Z" fill="#5582EE"/>
</svg>
